<svg width="70" height="71" viewBox="0 0 70 71" fill="none" xmlns="http://www.w3.org/2000/svg">
<g clip-path="url(#clip0_467_117)">
<path d="M67.2487 21.6813C66.3716 19.5777 65.2857 17.5486 64.0216 15.6507C62.7699 13.7709 61.3323 12.0037 59.7485 10.3979C58.1654 8.79154 56.423 7.33334 54.5697 6.06384C52.6986 4.78164 50.698 3.68028 48.6241 2.7906C44.3081 0.939272 39.7244 0 35 0C30.2756 0 25.6919 0.939272 21.3759 2.7906C19.302 3.68028 17.3014 4.78164 15.4303 6.06384C13.577 7.33334 11.8346 8.79154 10.2515 10.3979C8.66771 12.0037 7.23005 13.7709 5.97843 15.6507C4.71429 17.5486 3.62844 19.5777 2.75129 21.6813C0.925446 26.0589 0 30.7081 0 35.5C0 40.2919 0.925446 44.9411 2.75129 49.3187C3.62844 51.4229 4.71429 53.4514 5.97843 55.3493C7.23005 57.229 8.66771 58.9963 10.2515 60.6021C11.8346 62.2085 13.577 63.6667 15.4303 64.9362C17.3014 66.2184 19.302 67.3197 21.3759 68.2094C21.6961 68.3467 22.0181 68.4785 22.3407 68.6055C23.513 69.0676 24.7038 69.4638 25.9113 69.7928C28.3156 70.4478 30.7848 70.8373 33.2988 70.9589C33.8635 70.9861 34.4305 71 35 71C35.811 71 36.6177 70.9716 37.4198 70.9165C39.7823 70.7538 42.103 70.3522 44.3666 69.7154C45.7231 69.3337 47.0588 68.8668 48.3701 68.3165C48.4547 68.2808 48.5394 68.2457 48.6241 68.2094C50.698 67.3197 52.6986 66.2184 54.5697 64.9362C56.423 63.6667 58.1654 62.2085 59.7485 60.6021C61.3323 58.9963 62.7699 57.229 64.0216 55.3493C65.2857 53.4514 66.3716 51.4229 67.2487 49.3187C69.0746 44.9411 70 40.2919 70 35.5C70 30.7081 69.0746 26.0589 67.2487 21.6813ZM48.8167 64.4553C47.6199 65.0456 46.3814 65.5615 45.1066 65.997C42.5884 66.8576 39.9307 67.4056 37.1771 67.5961C36.4573 67.6457 35.7317 67.6717 35 67.6717C34.511 67.6717 34.0251 67.6596 33.5415 67.6372C30.6137 67.5024 27.7878 66.9629 25.1176 66.0726C24.0527 65.7176 23.0127 65.3069 22.0002 64.8442C10.9748 59.7995 3.2814 48.544 3.2814 35.5C3.2814 17.7603 17.5101 3.32828 35 3.32828C52.4899 3.32828 66.7186 17.7603 66.7186 35.5C66.7186 48.2192 59.4039 59.2376 48.8167 64.4553Z" fill="white"/>
<g clip-path="url(#clip1_467_117)">
<path d="M33.2051 14.9142C33.5414 14.9142 33.8141 14.642 33.8141 14.3062C33.8141 13.9704 33.5414 13.6982 33.2051 13.6982C32.8688 13.6982 32.5961 13.9704 32.5961 14.3062C32.5961 14.642 32.8688 14.9142 33.2051 14.9142Z" fill="white"/>
<path d="M36.8586 14.914C36.8586 15.1378 36.6768 15.3193 36.4526 15.3193C36.2285 15.3193 36.0467 15.1378 36.0467 14.914C36.0467 14.6903 36.2285 14.5088 36.4526 14.5088C36.6768 14.5088 36.8586 14.6903 36.8586 14.914Z" fill="white"/>
<path d="M39.8524 14.3568C39.9925 14.4966 39.9925 14.7235 39.8524 14.8633C39.7124 15.0032 39.4851 15.0032 39.345 14.8633C39.205 14.7235 39.205 14.4966 39.345 14.3568C39.4851 14.217 39.7124 14.217 39.8524 14.3568Z" fill="white"/>
<path d="M36.8078 11.8241C36.9478 11.9639 36.9478 12.1908 36.8078 12.3306C36.6677 12.4704 36.4404 12.4704 36.3004 12.3306C36.1603 12.1908 36.1603 11.9639 36.3004 11.8241C36.4404 11.6843 36.6677 11.6843 36.8078 11.8241Z" fill="white"/>
<path d="M43.0793 13.4498C43.3901 13.3213 43.5376 12.9657 43.4089 12.6555C43.2802 12.3452 42.924 12.1979 42.6132 12.3264C42.3025 12.4549 42.1549 12.8106 42.2836 13.1208C42.4124 13.431 42.7686 13.5783 43.0793 13.4498Z" fill="white"/>
<path d="M43.856 37.9535C43.1351 37.9535 42.3662 37.7055 41.6044 37.2236C40.8971 36.7763 40.1976 36.1224 39.685 35.4299C38.3704 33.6544 37.7328 31.5005 37.3242 29.8225C37.1038 28.9178 36.9136 27.9633 36.7587 26.9858C36.6974 26.5989 36.9619 26.2357 37.3494 26.1745C37.7369 26.1133 38.1008 26.3774 38.1621 26.7642C38.3109 27.7038 38.4936 28.6201 38.7048 29.4875C39.0818 31.0361 39.6639 33.0151 40.8277 34.5869C41.24 35.144 41.8002 35.6683 42.365 36.0255C42.81 36.307 43.4748 36.6204 44.1144 36.5144C44.2717 36.4882 44.4195 36.4383 44.566 36.3618C45.1941 36.0343 45.6821 35.5688 46.0586 34.9382C46.3981 34.3696 46.6414 33.6638 46.7816 32.8403C47.0009 31.5517 46.9751 29.9823 46.7026 28.0425C46.2481 24.7994 45.2425 21.312 43.6281 17.3807C43.6019 17.3167 43.5361 17.2813 43.4681 17.2944L37.7261 18.4008C37.6586 18.4137 37.6109 18.4701 37.6098 18.5379C37.6098 18.5652 37.6095 18.5924 37.6093 18.6195C37.6092 18.6434 37.6089 18.6671 37.6089 18.6912C37.6089 19.0828 37.2908 19.4004 36.8984 19.4004C36.5061 19.4004 36.188 19.0828 36.188 18.6912C36.188 18.6625 36.1883 18.6342 36.1886 18.6058C36.1888 18.5819 36.1891 18.5582 36.1891 18.5342C36.1891 18.5325 36.1891 18.5306 36.1891 18.5289C36.1947 17.7881 36.7279 17.1485 37.4571 17.0081L43.1991 15.9017C43.9281 15.7613 44.6615 16.1571 44.943 16.8428C46.6029 20.885 47.6388 24.4841 48.1099 27.8458C48.403 29.9318 48.4267 31.6434 48.1826 33.078C47.8109 35.2614 46.8156 36.7892 45.2245 37.6189C44.9471 37.7639 44.652 37.8631 44.3476 37.9137C44.1869 37.9404 44.023 37.9535 43.8563 37.9535H43.856Z" fill="white"/>
<path d="M46.1831 48.6403C45.8464 48.6403 45.5473 48.4003 45.485 48.0579L43.5229 37.2928C43.4528 36.9075 43.7086 36.5382 44.0947 36.4681C44.4808 36.398 44.8507 36.6535 44.9208 37.0389L46.8829 47.8041C46.953 48.1893 46.6972 48.5587 46.3111 48.6288C46.2681 48.6366 46.2253 48.6403 46.1831 48.6403Z" fill="white"/>
<path d="M41.4169 54.4492C41.1003 54.4492 40.8144 54.2368 40.7307 53.9209C40.636 53.5631 40.833 53.1927 41.1829 53.0703C42.2787 52.6876 43.1855 52.1734 43.8781 51.5417C44.4158 51.0514 44.8275 50.4881 45.1017 49.8676C45.5534 48.8452 45.4785 48.016 45.4776 48.0079C45.437 47.6362 45.6913 47.292 46.0603 47.2277C46.4286 47.1634 46.7822 47.3901 46.8713 47.7521C46.8852 47.8007 47.1306 48.6241 47.9314 49.4145C48.4089 49.8859 48.992 50.2573 49.6643 50.5185C50.5248 50.8529 51.5388 51.009 52.6776 50.9823C53.0483 50.9745 53.3634 51.251 53.4011 51.6193C53.4387 51.9875 53.1863 52.3227 52.8215 52.389L41.5447 54.4374C41.5018 54.4453 41.459 54.449 41.4169 54.449V54.4492ZM46.566 50.0274C46.5182 50.1621 46.4636 50.3001 46.4017 50.4402C46.0911 51.143 45.6483 51.7851 45.0829 52.3531L48.7747 51.6826C48.045 51.3498 47.404 50.9046 46.8653 50.3561C46.7578 50.2467 46.6582 50.1367 46.5659 50.0276L46.566 50.0274Z" fill="white"/>
<path d="M44.038 27.3632C43.7368 27.3632 43.4515 27.327 43.1833 27.2545C42.805 27.1523 42.4641 26.9773 42.1699 26.7344C41.8549 26.4742 41.5928 26.1353 41.3912 25.7268C41.1101 25.1586 40.6532 24.7482 39.9947 24.4726C39.4912 24.262 38.8663 24.1375 38.1875 24.1128C37.7955 24.0985 37.4893 23.7697 37.5035 23.3781C37.5179 22.9868 37.848 22.6812 38.2394 22.6953C39.0995 22.7267 39.8749 22.8844 40.5439 23.1645C41.5184 23.5723 42.2321 24.2231 42.6653 25.0992C42.8775 25.5291 43.1601 25.7788 43.5545 25.8853C44.0496 26.0191 44.7248 25.924 45.5075 25.6104C46.1316 25.3602 46.5957 25.0586 46.6002 25.0556C46.9276 24.8397 47.3684 24.9296 47.5845 25.2563C47.8007 25.5831 47.7108 26.023 47.3835 26.2389C47.3602 26.2544 46.8033 26.6194 46.0367 26.9266C45.3115 27.2173 44.6424 27.3632 44.0378 27.3632H44.038Z" fill="white"/>
<path d="M29.664 38.3704C29.6132 38.3704 29.5624 38.3697 29.5113 38.3683C28.4223 38.3372 27.4699 37.7324 26.7571 36.6195C26.2444 35.8188 25.876 34.7759 25.7465 33.7584C25.4677 31.5673 25.9646 29.3771 26.4287 27.7138C27.3 24.5904 28.7227 21.2903 30.778 17.6249C30.8401 17.5143 30.9012 17.4062 30.96 17.3033C31.3272 16.6596 32.1054 16.3614 32.8104 16.5943L38.3631 18.4278C39.068 18.6606 39.5146 19.3633 39.4249 20.0986C38.8963 24.4354 38.0404 28.0814 36.8086 31.2449C36.0439 33.2085 35.2276 34.7138 34.313 35.8467C32.9606 37.522 31.3972 38.3706 29.6642 38.3706L29.664 38.3704ZM32.3188 17.9334C32.2683 17.9334 32.2202 17.96 32.1942 18.0052C32.1373 18.1049 32.0779 18.2101 32.0176 18.3176C30.0182 21.8833 28.6378 25.0811 27.7972 28.0942C27.3689 29.6292 26.909 31.64 27.1558 33.5795C27.2582 34.3839 27.5566 35.2347 27.9541 35.8555C28.4084 36.5648 28.9459 36.9333 29.5518 36.9504C30.2591 36.9707 30.9128 36.802 31.5498 36.4352C32.124 36.1043 32.6815 35.6069 33.2067 34.9565C34.0282 33.9387 34.7732 32.5565 35.4843 30.7308C36.6727 27.6788 37.5004 24.145 38.0145 19.9271C38.0226 19.86 37.9817 19.7957 37.9168 19.7743L32.3641 17.9408C32.3493 17.9359 32.3341 17.9334 32.319 17.9334H32.3188Z" fill="white"/>
<path d="M25.306 48.545C25.2298 48.545 25.1521 48.5327 25.0758 48.5066C24.7046 48.3798 24.5068 47.9764 24.6339 47.6059L28.1855 37.2545C28.3125 36.8839 28.7165 36.6865 29.0877 36.8133C29.4589 36.9402 29.6567 37.3436 29.5296 37.714L25.978 48.0655C25.8771 48.3599 25.6012 48.545 25.306 48.545Z" fill="white"/>
<path d="M29.1491 54.9994C29.0727 54.9994 28.995 54.9871 28.919 54.9611L18.0755 51.2533C17.7248 51.1333 17.5253 50.7642 17.6177 50.4058C17.7101 50.0473 18.0632 49.82 18.4283 49.8838C19.5717 50.0837 20.6147 50.0768 21.528 49.8632C22.237 49.6973 22.8718 49.4065 23.4145 48.9984C24.3086 48.3263 24.6488 47.5661 24.652 47.5586C24.7983 47.2143 25.1887 47.038 25.5422 47.1614C25.8949 47.2847 26.0928 47.655 25.9935 48.0144C25.9821 48.0631 25.7934 48.9015 26.1059 49.9818C26.2922 50.6258 26.6194 51.2341 27.0785 51.7897C27.666 52.501 28.4746 53.1313 29.4816 53.6631C29.8094 53.8361 29.9487 54.2319 29.8014 54.5716C29.6861 54.8376 29.4255 54.9993 29.1494 54.9993L29.1491 54.9994ZM22.1826 51.1584L25.7326 52.3723C25.2585 51.7262 24.9168 51.0253 24.715 50.2841C24.6747 50.1361 24.6416 49.9916 24.6144 49.8513C24.5068 49.9454 24.3918 50.0394 24.2691 50.1314C23.6545 50.5935 22.9539 50.938 22.1826 51.1584Z" fill="white"/>
<path d="M36.5363 29.501C36.2615 29.501 35.8762 29.4876 35.4487 29.4325C34.2873 29.283 33.3955 28.9113 32.7979 28.3279C32.5178 28.0543 32.3057 27.7355 32.1677 27.3802C32.0198 26.9998 31.9568 26.5763 31.9804 26.1214C32.0276 25.2118 31.5793 24.3712 30.6483 23.6229C29.8865 23.0108 29.0841 22.6999 29.0761 22.6968C28.7093 22.5581 28.5251 22.1489 28.6641 21.7827C28.8031 21.4165 29.2138 21.2322 29.5807 21.3709C29.6207 21.386 30.5716 21.7499 31.506 22.4915C32.8164 23.5313 33.4712 24.8119 33.3994 26.1946C33.3747 26.6719 33.4987 27.0271 33.7897 27.312C34.1519 27.6667 34.7792 27.9123 35.6036 28.022C36.2851 28.1127 36.8509 28.0743 36.8566 28.0738C37.2478 28.0448 37.5879 28.3382 37.6169 28.7288C37.6458 29.1193 37.3516 29.4595 36.9603 29.4884C36.9471 29.4893 36.7881 29.5007 36.5363 29.5007V29.501Z" fill="white"/>
</g>
</g>
<defs>
<clipPath id="clip0_467_117">
<rect width="70" height="71" fill="white"/>
</clipPath>
<clipPath id="clip1_467_117">
<rect width="35.8096" height="43.2807" fill="white" transform="translate(17.5952 11.7192)"/>
</clipPath>
</defs>
</svg>
