<svg width="70" height="71" viewBox="0 0 70 71" fill="none" xmlns="http://www.w3.org/2000/svg">
<g clip-path="url(#clip0_461_65)">
<path d="M67.2487 21.6813C66.3716 19.5777 65.2857 17.5486 64.0216 15.6507C62.7699 13.7709 61.3323 12.0037 59.7485 10.3979C58.1654 8.79154 56.423 7.33334 54.5697 6.06384C52.6986 4.78164 50.698 3.68028 48.6241 2.7906C44.3081 0.939272 39.7244 0 35 0C30.2756 0 25.6919 0.939272 21.3759 2.7906C19.302 3.68028 17.3014 4.78164 15.4303 6.06384C13.577 7.33334 11.8346 8.79154 10.2515 10.3979C8.66771 12.0037 7.23005 13.7709 5.97843 15.6507C4.71429 17.5486 3.62844 19.5777 2.75129 21.6813C0.925446 26.0589 0 30.7081 0 35.5C0 40.2919 0.925446 44.9411 2.75129 49.3187C3.62844 51.4229 4.71429 53.4514 5.97843 55.3493C7.23005 57.229 8.66771 58.9963 10.2515 60.6021C11.8346 62.2085 13.577 63.6667 15.4303 64.9362C17.3014 66.2184 19.302 67.3197 21.3759 68.2094C21.6961 68.3467 22.0181 68.4785 22.3407 68.6055C23.513 69.0676 24.7038 69.4638 25.9113 69.7928C28.3156 70.4478 30.7848 70.8373 33.2988 70.9589C33.8635 70.9861 34.4305 71 35 71C35.811 71 36.6177 70.9716 37.4198 70.9165C39.7823 70.7538 42.103 70.3522 44.3666 69.7154C45.7231 69.3337 47.0588 68.8668 48.3701 68.3165C48.4547 68.2808 48.5394 68.2457 48.6241 68.2094C50.698 67.3197 52.6986 66.2184 54.5697 64.9362C56.423 63.6667 58.1654 62.2085 59.7485 60.6021C61.3323 58.9963 62.7699 57.229 64.0216 55.3493C65.2857 53.4514 66.3716 51.4229 67.2487 49.3187C69.0746 44.9411 70 40.2919 70 35.5C70 30.7081 69.0746 26.0589 67.2487 21.6813ZM48.8167 64.4553C47.6199 65.0456 46.3814 65.5615 45.1066 65.997C42.5884 66.8576 39.9307 67.4056 37.1771 67.5961C36.4573 67.6457 35.7317 67.6717 35 67.6717C34.511 67.6717 34.0251 67.6596 33.5415 67.6372C30.6137 67.5024 27.7878 66.9629 25.1176 66.0726C24.0527 65.7176 23.0127 65.3069 22.0002 64.8442C10.9748 59.7995 3.2814 48.544 3.2814 35.5C3.2814 17.7603 17.5101 3.32828 35 3.32828C52.4899 3.32828 66.7186 17.7603 66.7186 35.5C66.7186 48.2192 59.4039 59.2376 48.8167 64.4553Z" fill="white"/>
<g clip-path="url(#clip1_461_65)">
<path d="M50.1141 38.2993H48.3991C48.1797 34.907 46.8543 32.0194 44.3379 29.6822C42.6632 28.1247 40.1602 26.836 38.387 26.6088C43.758 28.8084 46.8274 32.5458 47.1633 38.2862H20.8412C21.1725 33.6926 23.1158 29.9312 26.9846 27.3253C32.1048 23.8784 37.5385 23.636 42.9274 26.6765C47.4252 29.2147 49.6932 33.2164 50.1141 38.2971V38.2993Z" fill="white"/>
<path d="M27.8376 54.771C27.0137 53.2114 26.201 51.6759 25.386 50.1337C25.8024 49.8694 26.201 49.6401 26.5748 49.3758C27.2353 48.9105 27.6047 48.2814 27.645 47.4732C27.6876 46.6148 27.757 45.7564 27.804 44.8979C27.8487 44.0919 27.589 43.3907 27.0226 42.7988C26.9689 42.742 26.9151 42.683 26.8637 42.6219C26.6151 42.3182 26.2726 42.0168 26.4965 41.5887C26.7293 41.1431 27.2017 41.2195 27.6114 41.2545C28.2831 41.3113 28.7913 41.6782 29.1316 42.2156C29.5794 42.9167 29.9645 43.6572 30.3764 44.3802C30.5398 44.6664 30.6719 44.9744 30.8757 45.2299C31.4936 46.0054 32.3108 46.2478 33.2735 45.9813C35.8078 45.2802 38.1497 44.2033 40.3057 42.707C41.1296 42.1369 42.0721 41.7001 43.0169 41.3397C43.449 41.1758 44.0222 41.2938 44.5125 41.3833C44.6871 41.4139 44.9155 41.7328 44.9222 41.9251C44.9289 42.1085 44.7162 42.4165 44.5349 42.4733C42.4886 43.1024 40.9684 44.4676 39.6139 45.9661C36.8579 49.0132 33.4638 51.239 30.007 53.4058C29.2928 53.8536 28.5831 54.3036 27.8353 54.7754L27.8376 54.771Z" fill="white"/>
<path d="M35.4877 38.8193C41.9669 38.8193 48.4439 38.8193 54.9231 38.8193C55.0194 38.8193 55.1157 38.8149 55.2119 38.8193C55.5366 38.8346 55.9754 38.7363 56 39.2037C56.0269 39.7105 55.5679 39.6996 55.2007 39.7301C54.0186 39.8284 52.832 39.8896 51.6566 40.0338C51.2313 40.0862 50.835 40.3396 50.4163 40.4772C50.0917 40.5842 49.7559 40.7262 49.4245 40.7284C45.3991 40.7459 41.3759 40.7393 37.3504 40.7393C32.107 40.7393 26.8637 40.7371 21.6203 40.7437C21.1703 40.7437 20.812 40.5798 20.4091 40.4051C19.827 40.1517 19.1665 40.0316 18.5284 39.9508C17.5926 39.8328 16.6433 39.7979 15.7008 39.7258C15.5888 39.717 15.4478 39.7301 15.3761 39.669C15.2194 39.5401 14.9978 39.3675 15 39.2146C15.0022 39.0814 15.2575 38.9241 15.4343 38.8346C15.5485 38.7756 15.7164 38.8193 15.862 38.8193C22.4039 38.8193 28.9458 38.8193 35.4899 38.8193H35.4877Z" fill="white"/>
<path d="M28.0458 56.4269C26.5301 57.3006 25.0748 58.1416 23.5837 59C22.4442 56.7786 21.3203 54.5921 20.1807 52.3684C21.7277 51.6826 23.239 51.012 24.8151 50.313C25.8898 52.3444 26.9554 54.3605 28.048 56.4269H28.0458ZM26.4114 56.0381C26.1271 55.8481 25.9502 55.6384 25.8002 55.6537C25.648 55.6711 25.4174 55.9114 25.4151 56.0556C25.4151 56.1888 25.6659 56.4203 25.8181 56.4291C25.9704 56.44 26.1383 56.2281 26.4092 56.0359L26.4114 56.0381Z" fill="white"/>
<path d="M36.2287 24.3479H34.7086C34.4175 23.9111 34.1332 23.5441 33.9227 23.1422C33.8444 22.9915 33.8578 22.7031 33.9563 22.5677C34.5877 21.7093 36.4078 21.7311 37.0056 22.6048C37.0974 22.7403 37.0795 23.022 36.9967 23.1793C36.7974 23.5572 36.531 23.898 36.2265 24.3501L36.2287 24.3479Z" fill="white"/>
<path d="M32.4518 12.0459C31.9996 12.568 31.5137 13.0703 31.4421 13.8043C31.3637 14.5819 31.5943 15.2874 31.9794 15.9536C32.3891 16.6592 32.8212 17.3538 33.2332 18.0571C33.6294 18.7365 33.5802 19.5643 33.0697 20.1235C33.3451 19.3634 33.0473 18.7867 32.7026 18.2144C32.1943 17.3669 31.6234 16.5478 31.2048 15.6588C30.4973 14.1581 30.9854 12.8279 32.454 12.0459H32.4518Z" fill="white"/>
<path d="M39.6564 20.0493C39.8669 19.4529 39.6721 18.9309 39.3743 18.4351C38.9221 17.6815 38.4251 16.9497 37.9974 16.183C37.778 15.792 37.6079 15.3552 37.5206 14.9183C37.272 13.6645 37.7579 12.7165 39.0206 12.0088C38.9086 12.1573 38.8661 12.2316 38.8101 12.2862C37.8564 13.208 37.7288 14.2936 38.2773 15.4294C38.6982 16.3032 39.2355 17.1223 39.7281 17.9632C40.1646 18.7081 40.1512 19.5054 39.6564 20.0515V20.0493Z" fill="white"/>
<path d="M36.3788 20.0427C36.5758 19.5162 36.4661 19.0226 36.1907 18.5617C35.7452 17.8212 35.2549 17.1069 34.8384 16.3512C34.5854 15.8903 34.3616 15.3857 34.2608 14.8746C34.0212 13.6557 34.5071 12.7514 35.7675 12C35.6511 12.1573 35.6064 12.2403 35.5414 12.3036C34.5922 13.232 34.4847 14.3176 35.0332 15.449C35.4564 16.3206 36.0429 17.1179 36.4638 17.9916C36.6698 18.4197 36.7034 18.9418 36.737 19.4267C36.7526 19.6429 36.5758 19.8723 36.4862 20.0951C36.4504 20.0776 36.4146 20.0601 36.3788 20.0427Z" fill="white"/>
</g>
</g>
<defs>
<clipPath id="clip0_461_65">
<rect width="70" height="71" fill="white"/>
</clipPath>
<clipPath id="clip1_461_65">
<rect width="41" height="47" fill="white" transform="translate(15 12)"/>
</clipPath>
</defs>
</svg>
